<svg width="21" height="20" fill="none" xmlns="http://www.w3.org/2000/svg"><path d="M1 1.181l2.08.351.963 11.18c.077.912.86 1.613 1.8 1.61h10.909c.897.002 1.658-.641 1.785-1.506l.949-6.39c.106-.715-.403-1.377-1.135-1.48-.064-.01-14.937-.014-14.937-.014m8.961 3.602h2.773"/><path clip-rule="evenodd" d="M5.404 17.7c.301 0 .544.238.544.53a.538.538 0 01-.544.533.538.538 0 01-.544-.532c0-.293.243-.531.544-.531zm11.281 0c.3 0 .545.238.545.53a.539.539 0 01-.545.533.538.538 0 01-.544-.532c0-.293.243-.531.544-.531z"/></svg>