<svg width="21" height="20" viewBox="0 0 21 20" fill="none" xmlns="http://www.w3.org/2000/svg">
   <path
      d="M1 1.1814L3.08 1.53218L4.04301 12.7113C4.12001 13.6243 4.90301 14.3249 5.84301 14.322H16.752C17.649 14.324 18.41 13.6809 18.537 12.8156L19.486 6.42556C19.592 5.71133 19.083 5.04875 18.351 4.94546C18.287 4.93669 3.414 4.93182 3.414 4.93182"
      stroke="" stroke-width="1.5" stroke-linecap="round" stroke-linejoin="round" />
   <path d="M12.375 8.53397H15.1479" stroke="" stroke-width="1.5" stroke-linecap="round" stroke-linejoin="round" />
   <path fill-rule="evenodd" clip-rule="evenodd"
      d="M5.4043 17.6998C5.70527 17.6998 5.94824 17.938 5.94824 18.2308C5.94824 18.5247 5.70527 18.7628 5.4043 18.7628C5.10333 18.7628 4.86035 18.5247 4.86035 18.2308C4.86035 17.938 5.10333 17.6998 5.4043 17.6998Z"
      fill="" stroke="" stroke-width="1.5" stroke-linecap="round" stroke-linejoin="round" />
   <path fill-rule="evenodd" clip-rule="evenodd"
      d="M16.6846 17.6998C16.9856 17.6998 17.2296 17.938 17.2296 18.2308C17.2296 18.5247 16.9856 18.7628 16.6846 18.7628C16.3836 18.7628 16.1406 18.5247 16.1406 18.2308C16.1406 17.938 16.3836 17.6998 16.6846 17.6998Z"
      fill="" stroke="" stroke-width="1.5" stroke-linecap="round" stroke-linejoin="round" />
</svg>